<svg width="438" height="1638" viewBox="0 0 438 1638" fill="none" xmlns="http://www.w3.org/2000/svg">
<rect width="438" height="1638" fill="#F8F8F8"/>
<rect x="40" y="33" width="358" height="378" rx="5" fill="white"/>
<ellipse cx="220.874" cy="226" rx="146.199" ry="156" fill="#F9F9F9"/>
<path d="M40 38C40 35.2386 42.2386 33 45 33H393C395.761 33 398 35.2386 398 38V134H40V38Z" fill="#F2F2F2"/>
<path d="M40 335H398V406C398 408.761 395.761 411 393 411H45C42.2386 411 40 408.761 40 406V335Z" fill="#F2F2F2"/>
<rect x="54.9948" y="54" width="144.325" height="31" rx="5" fill="#C4C4C4"/>
<rect x="54.9948" y="95" width="330.822" height="23" rx="5" fill="#C4C4C4"/>
<rect x="54.9948" y="350" width="90.9058" height="42" rx="4" fill="#C4C4C4"/>
<rect x="42" y="434" width="358" height="378" rx="5" fill="white"/>
<ellipse cx="222.874" cy="627" rx="146.199" ry="156" fill="#F9F9F9"/>
<path d="M42 439C42 436.239 44.2386 434 47 434H395C397.761 434 400 436.239 400 439V535H42V439Z" fill="#F2F2F2"/>
<path d="M42 736H400V807C400 809.761 397.761 812 395 812H47C44.2386 812 42 809.761 42 807V736Z" fill="#F2F2F2"/>
<rect x="56.9948" y="455" width="144.325" height="31" rx="5" fill="#C4C4C4"/>
<rect x="56.9948" y="496" width="330.822" height="23" rx="5" fill="#C4C4C4"/>
<rect x="56.9948" y="751" width="90.9058" height="42" rx="4" fill="#C4C4C4"/>
<rect x="40" y="835" width="358" height="378" rx="5" fill="white"/>
<ellipse cx="220.874" cy="1028" rx="146.199" ry="156" fill="#F9F9F9"/>
<path d="M40 840C40 837.239 42.2386 835 45 835H393C395.761 835 398 837.239 398 840V936H40V840Z" fill="#F2F2F2"/>
<path d="M40 1137H398V1208C398 1210.76 395.761 1213 393 1213H45C42.2386 1213 40 1210.76 40 1208V1137Z" fill="#F2F2F2"/>
<rect x="54.9948" y="856" width="144.325" height="31" rx="5" fill="#C4C4C4"/>
<rect x="54.9948" y="897" width="330.822" height="23" rx="5" fill="#C4C4C4"/>
<rect x="54.9948" y="1152" width="90.9058" height="42" rx="4" fill="#C4C4C4"/>
<rect x="44" y="1236" width="358" height="378" rx="5" fill="white"/>
<ellipse cx="224.874" cy="1429" rx="146.199" ry="156" fill="#F9F9F9"/>
<path d="M44 1241C44 1238.24 46.2386 1236 49 1236H397C399.761 1236 402 1238.24 402 1241V1337H44V1241Z" fill="#F2F2F2"/>
<path d="M44 1538H402V1609C402 1611.76 399.761 1614 397 1614H49C46.2386 1614 44 1611.76 44 1609V1538Z" fill="#F2F2F2"/>
<rect x="58.9948" y="1257" width="144.325" height="31" rx="5" fill="#C4C4C4"/>
<rect x="58.9948" y="1298" width="330.822" height="23" rx="5" fill="#C4C4C4"/>
<rect x="58.9948" y="1553" width="90.9058" height="42" rx="4" fill="#C4C4C4"/>
</svg>
